v	-1.0	-1.0	 1.0
v	 1.0	-1.0	 1.0
v	 1.0	 1.0	 1.0
v	-1.0	 1.0	 1.0
v	-1.0	-1.0	-1.0
v	 1.0	-1.0	-1.0
v	 1.0	 1.0	-1.0
v	-1.0	 1.0	-1.0
vn	 1.0	 0.0	 0.0
vn	-1.0	 0.0	 0.0
vn	 0.0	 1.0	 0.0
vn	 0.0	-1.0	 0.0
vn	 0.0	 0.0	 1.0
vn	 0.0	 0.0	-1.0
vt	0.00	0.00	0.00
vt	0.33	0.00	0.00
vt	0.66	0.00	0.00
vt	1.00	0.00	0.00
vt	0.00	0.33	0.00
vt	0.33	0.33	0.00
vt	0.66	0.33	0.00
vt	1.00	0.33	0.00
vt	0.00	0.66	0.00
vt	0.33	0.66	0.00
vt	0.66	0.66	0.00
vt	1.00	0.66	0.00
vt	0.00	1.00	0.00
vt	0.33	1.00	0.00
vt	0.66	1.00	0.00
vt	1.00	1.00	0.00
f	1/10/5	2/11/5	3/7/5	4/6/5
f	6/15/6	5/16/6	8/12/6	7/11/6
f	2/11/1	6/12/1	7/8/1	3/7/1
f	5/9/2	1/10/2	4/6/2	8/5/2
f	4/6/3	3/7/3	7/3/3	8/2/3
f	5/14/4	6/15/4	2/11/4	1/10/4
